PathFileType	4	(X/Y/Z)	Patient4_TMGait_0pt4_01_left_41.trc.trc
DataRate	CameraRate	NumFrames	NumMarkers	Units	OrigDataRate	OrigDataStartFrame	OrigNumFrames
76.502732240437	76.502732240437	4	33	mm	76.502732240437	89	       141
Frame#	Time	Sacral			L.Shoulder			Chest			R.Shoulder			Neck			R.ASIS			L.ASIS			R.Thigh.Superior			R.Thigh.Lateral			R.Thigh.Inferior			R.Patella			L.Thigh.Superior			L.Thigh.Lateral			L.Thigh.Inferior			L.Patella			L.Shank.Superior			L.Shank.Lateral			L.Shank.Inferior			R.Shank.Superior			R.Shank.Lateral			R.Shank.Inferior			R.Heel			R.Midfoot.Superior			R.Midfoot.Lateral			R.Toe			L.Heel			L.Midfoot.Lateral			L.Midfoot.Superior			L.Toe			L.Elbow			L.Wrist			R.Elbow			R.Wrist			
		X1	Y1	Z1	X2	Y2	Z2	X3	Y3	Z3	X4	Y4	Z4	X5	Y5	Z5	X6	Y6	Z6	X7	Y7	Z7	X8	Y8	Z8	X9	Y9	Z9	X10	Y10	Z10	X11	Y11	Z11	X12	Y12	Z12	X13	Y13	Z13	X14	Y14	Z14	X15	Y15	Z15	X16	Y16	Z16	X17	Y17	Z17	X18	Y18	Z18	X19	Y19	Z19	X20	Y20	Z20	X21	Y21	Z21	X22	Y22	Z22	X23	Y23	Z23	X24	Y24	Z24	X25	Y25	Z25	X26	Y26	Z26	X27	Y27	Z27	X28	Y28	Z28	X29	Y29	Z29	X30	Y30	Z30	X31	Y31	Z31	X32	Y32	Z32	X33	Y33	Z33	

89	52.670285714286	838.671218040297	994.696923349303	492.954855191483	1014.611800124981	1432.990608312995	323.436729858325	1106.409511431503	1368.490272424284	492.550600894409	1003.978791619792	1435.300158405567	658.967726833582	978.051853682424	1491.445221995978	479.790178387728	1066.532860219040	942.380959593472	621.471231232654	1060.053502577223	960.794609883828	346.153782642625	1126.010332613014	746.861481463150	593.807850645887	1051.645211460300	631.696535537733	650.784825369890	1137.696551788156	585.961340425729	574.644269449801	1145.170691102889	496.706507197725	581.305081761890	1104.375808099018	741.143603163975	368.294839116239	1019.708149569335	626.133957381979	297.496398884212	1105.364818406087	543.000239971814	355.332294583622	1099.580842153090	460.089530889958	352.609728508791	1037.999029347900	398.219208548865	345.845411858978	904.298188809514	339.387309570788	294.317593386715	904.294032033365	211.478683690276	353.289497084847	1116.100591788168	406.048754645740	587.601998645005	1043.705442522469	302.198813841163	649.016180365853	1087.686251331102	207.389982506611	586.581499295761	955.603013899349	42.871896983805	553.805973634971	1124.990506343111	97.278942257354	593.447785810826	1037.290593558407	37.113354372587	631.111065621824	1245.212819486911	47.342438015118	624.228281802290	724.353048932028	113.990597649782	388.737427588953	791.108026852426	84.275824239481	308.686935455220	890.358958307434	116.295329848095	332.556688459075	992.034344003123	34.317977658523	303.524093624559	1056.326541793540	1085.341140764092	199.944765688592	1275.676331308372	942.125089879109	219.546914725062	962.595083294327	1088.903074527704	776.433424177804	1076.414886882602	853.970795128013	785.111823096074	
90	52.683357142857	837.738127038018	995.059865693362	496.850801712406	1012.208227115639	1433.396917587654	326.232549154737	1105.986834830572	1368.657361799262	494.214280753419	1005.657288217475	1435.408156085035	661.876655650898	977.713921808519	1491.787934614554	482.944707401295	1066.718882521646	942.744033646427	623.249317622936	1058.272335653172	961.131373483762	347.683788151809	1124.249090699755	746.273466744307	596.150237094848	1048.931187348966	631.572007906174	652.765400506076	1134.577908614551	585.384786717007	576.438566369806	1141.199884495863	496.197669826439	582.714102717934	1107.665479508194	744.084570713343	370.033095676512	1027.161746254647	627.096433275324	298.644145456949	1115.459508098886	545.860801383011	356.025099863915	1111.020032053878	461.926041351606	352.803923837027	1047.844712334791	399.819730629443	346.302941491439	912.161763169284	344.974190239238	295.240367092872	908.895228424786	216.915648976694	353.783654908243	1111.927352816222	405.663761455250	588.833221295152	1039.335294708885	301.850080426378	649.982864038471	1082.876192518404	207.119869740900	587.166136352009	950.228455786620	42.820017409781	553.973119542032	1119.668047378895	97.119925777565	593.660684076159	1031.944140398940	37.030002616746	631.305158269766	1239.906726521243	47.143377122991	624.425871330071	725.549899074015	125.978135385040	389.520355075162	791.030725893768	93.602161501434	309.243161729023	891.939803722624	121.230183066487	332.863544019288	989.650045597943	34.143282921549	303.495244216335	1051.124212932966	1084.778938917988	203.977789454908	1265.812778784479	933.768951428914	219.949923727937	970.639551308729	1088.749788119333	781.195842850346	1089.743180084424	856.507544661813	788.462656161190	
91	52.696428571429	836.687102961085	995.508312327688	500.620433708708	1009.706151726674	1433.791650587711	328.805534313520	1105.513803661598	1368.839262437331	495.611732658956	1007.383426297680	1435.570037209153	664.548464756078	977.376774749577	1492.167766387001	485.868084246480	1066.766317825071	943.105204079097	624.909495830938	1056.549000532162	961.584712123976	349.144018687773	1122.277209653645	745.693152943325	598.138667745135	1046.154313251168	631.491730085407	654.620792678688	1131.217716704677	584.833890430927	577.973337523755	1136.969880770564	495.716619179738	583.965619522973	1110.540479165714	747.226035995326	371.642240850782	1034.080437922502	628.509678602928	299.604813413330	1124.839804051176	549.234943442449	356.530568220723	1121.860186812921	464.411703001537	352.888301424510	1057.462360821354	401.926821563025	346.604483888730	920.092681457539	350.446202322637	296.140330527154	914.186972600715	222.256393355428	354.293153620650	1107.553635849583	405.320806975465	589.950458642586	1034.813411744797	301.522758580655	650.875295733705	1077.958003260075	206.875125219331	587.687018614860	944.814938410426	42.763301920268	554.119631592966	1114.298206990833	96.931701240010	593.801671258200	1026.563980830738	36.951655593995	631.474162215795	1234.565115991161	46.931912449742	624.579901859065	728.124989039251	136.882467293835	390.552993728370	792.359378435281	102.413572203274	309.913104286819	894.672109573273	126.183405648611	333.220460455909	988.889605439858	34.360636748825	303.205664594022	1045.654246700170	1084.189815334717	207.866594820398	1255.005106967093	925.157464732337	220.049777561593	978.844889766618	1088.817844740292	785.778901519990	1103.059348503950	859.324053230390	791.628473878950	
92	52.709500000000	835.555427342709	996.045794721298	504.252342263176	1007.175593326171	1434.195078592137	331.159093571815	1105.007022123780	1369.052971457803	496.771827649760	1009.127682559662	1435.810237130714	666.978530231783	977.044147602440	1492.599168929442	488.551692055818	1066.682793418113	943.465585719345	626.474631576330	1054.877011235292	962.180113746544	350.589572400294	1120.158059690481	745.145823114659	599.766453800572	1043.352043693375	631.465527426798	656.333615200186	1127.662114512673	584.317685015793	579.251895162886	1132.531739027368	495.275844300033	585.048134421492	1112.935000989035	750.538549846168	373.139766258994	1040.287045284543	630.360769869579	300.394335396284	1133.339607881925	553.071353544526	356.815829850094	1131.931489550512	467.503649746298	352.793604003275	1066.714465500917	404.497473819820	346.697654174110	927.982412495226	355.570939442558	296.979610791315	920.256307335433	227.219787935383	354.738278070646	1103.028360725931	405.031936234180	590.944664568676	1030.183858687283	301.234264554973	651.695858708759	1072.969663123136	206.667530270160	588.144465697273	939.395615219519	42.710980979981	554.251843698633	1108.912678616763	96.739024881645	593.891737381294	1021.179471447892	36.885066420231	631.624430237011	1229.215357161498	46.725242167115	624.695327850455	732.282614708635	146.046503868389	391.753818593064	795.366893433852	110.153033965132	310.620015236580	898.787524734693	130.852820831616	333.520562267642	990.205220108133	35.010254093265	302.563821868061	1039.906188599845	1083.603196067813	211.599255566936	1243.203265707265	916.402491735613	219.856070965977	987.159750819702	1089.118293550278	790.121986999531	1116.327981393010	862.434870759003	794.575894196254	
